%TF.GenerationSoftware,KiCad,Pcbnew,8.0.5*%
%TF.CreationDate,2024-10-15T20:37:22+02:00*%
%TF.ProjectId,LED_16x24V_REG4_VERSION_B,4c45445f-3136-4783-9234-565f52454734,rev?*%
%TF.SameCoordinates,Original*%
%TF.FileFunction,Copper,L2,Bot*%
%TF.FilePolarity,Positive*%
%FSLAX46Y46*%
G04 Gerber Fmt 4.6, Leading zero omitted, Abs format (unit mm)*
G04 Created by KiCad (PCBNEW 8.0.5) date 2024-10-15 20:37:22*
%MOMM*%
%LPD*%
G01*
G04 APERTURE LIST*
G04 Aperture macros list*
%AMRoundRect*
0 Rectangle with rounded corners*
0 $1 Rounding radius*
0 $2 $3 $4 $5 $6 $7 $8 $9 X,Y pos of 4 corners*
0 Add a 4 corners polygon primitive as box body*
4,1,4,$2,$3,$4,$5,$6,$7,$8,$9,$2,$3,0*
0 Add four circle primitives for the rounded corners*
1,1,$1+$1,$2,$3*
1,1,$1+$1,$4,$5*
1,1,$1+$1,$6,$7*
1,1,$1+$1,$8,$9*
0 Add four rect primitives between the rounded corners*
20,1,$1+$1,$2,$3,$4,$5,0*
20,1,$1+$1,$4,$5,$6,$7,0*
20,1,$1+$1,$6,$7,$8,$9,0*
20,1,$1+$1,$8,$9,$2,$3,0*%
G04 Aperture macros list end*
%TA.AperFunction,ComponentPad*%
%ADD10R,1.600000X1.600000*%
%TD*%
%TA.AperFunction,ComponentPad*%
%ADD11C,1.600000*%
%TD*%
%TA.AperFunction,ComponentPad*%
%ADD12RoundRect,0.249999X-0.790001X-1.550001X0.790001X-1.550001X0.790001X1.550001X-0.790001X1.550001X0*%
%TD*%
%TA.AperFunction,ComponentPad*%
%ADD13O,2.080000X3.600000*%
%TD*%
%TA.AperFunction,ComponentPad*%
%ADD14RoundRect,0.249999X1.550001X-0.790001X1.550001X0.790001X-1.550001X0.790001X-1.550001X-0.790001X0*%
%TD*%
%TA.AperFunction,ComponentPad*%
%ADD15O,3.600000X2.080000*%
%TD*%
%TA.AperFunction,ComponentPad*%
%ADD16R,2.000000X1.905000*%
%TD*%
%TA.AperFunction,ComponentPad*%
%ADD17O,2.000000X1.905000*%
%TD*%
%TA.AperFunction,SMDPad,CuDef*%
%ADD18RoundRect,0.147500X0.172500X-0.147500X0.172500X0.147500X-0.172500X0.147500X-0.172500X-0.147500X0*%
%TD*%
%TA.AperFunction,SMDPad,CuDef*%
%ADD19RoundRect,0.147500X-0.172500X0.147500X-0.172500X-0.147500X0.172500X-0.147500X0.172500X0.147500X0*%
%TD*%
%TA.AperFunction,ViaPad*%
%ADD20C,0.800000*%
%TD*%
%TA.AperFunction,Conductor*%
%ADD21C,0.250000*%
%TD*%
%TA.AperFunction,Conductor*%
%ADD22C,2.000000*%
%TD*%
G04 APERTURE END LIST*
D10*
%TO.P,C3,1*%
%TO.N,Net-(U1-VDD2)*%
X171450000Y-106640000D03*
D11*
%TO.P,C3,2*%
%TO.N,GND_LED*%
X171450000Y-104140000D03*
%TD*%
D12*
%TO.P,J4,1,Pin_1*%
%TO.N,Net-(J4-Pin_1)*%
X156845000Y-138430000D03*
D13*
%TO.P,J4,2,Pin_2*%
%TO.N,GND_LED*%
X161925000Y-138430000D03*
%TO.P,J4,3,Pin_3*%
%TO.N,Net-(J4-Pin_3)*%
X167005000Y-138430000D03*
%TO.P,J4,4,Pin_4*%
%TO.N,GND_LED*%
X172085000Y-138430000D03*
%TO.P,J4,5,Pin_5*%
%TO.N,Net-(J4-Pin_5)*%
X177165000Y-138430000D03*
%TO.P,J4,6,Pin_6*%
%TO.N,GND_LED*%
X182245000Y-138430000D03*
%TO.P,J4,7,Pin_7*%
%TO.N,Net-(J4-Pin_7)*%
X187325000Y-138430000D03*
%TO.P,J4,8,Pin_8*%
%TO.N,GND_LED*%
X192405000Y-138430000D03*
%TD*%
D14*
%TO.P,J5,1,Pin_1*%
%TO.N,GND_LED*%
X193040000Y-106680000D03*
D15*
%TO.P,J5,2,Pin_2*%
%TO.N,Net-(J5-Pin_2)*%
X193040000Y-101600000D03*
%TD*%
D12*
%TO.P,J1,1,Pin_1*%
%TO.N,Net-(J1-Pin_1)*%
X157480000Y-64770000D03*
D13*
%TO.P,J1,2,Pin_2*%
%TO.N,GND_LED*%
X162560000Y-64770000D03*
%TO.P,J1,3,Pin_3*%
%TO.N,Net-(J1-Pin_3)*%
X167640000Y-64770000D03*
%TO.P,J1,4,Pin_4*%
%TO.N,GND_LED*%
X172720000Y-64770000D03*
%TO.P,J1,5,Pin_5*%
%TO.N,Net-(J1-Pin_5)*%
X177800000Y-64770000D03*
%TO.P,J1,6,Pin_6*%
%TO.N,GND_LED*%
X182880000Y-64770000D03*
%TO.P,J1,7,Pin_7*%
%TO.N,Net-(J1-Pin_7)*%
X187960000Y-64770000D03*
%TO.P,J1,8,Pin_8*%
%TO.N,GND_LED*%
X193040000Y-64770000D03*
%TD*%
D16*
%TO.P,Q16,1,G*%
%TO.N,Net-(Q16-G)*%
X192405000Y-120650000D03*
D17*
%TO.P,Q16,2,D*%
%TO.N,Net-(Q16-D)*%
X192405000Y-123190000D03*
%TO.P,Q16,3,S*%
%TO.N,GND_LED*%
X192405000Y-125730000D03*
%TD*%
D12*
%TO.P,J3,1,Pin_1*%
%TO.N,Net-(J3-Pin_1)*%
X102870000Y-138430000D03*
D13*
%TO.P,J3,2,Pin_2*%
%TO.N,GND_LED*%
X107950000Y-138430000D03*
%TO.P,J3,3,Pin_3*%
%TO.N,Net-(J3-Pin_3)*%
X113030000Y-138430000D03*
%TO.P,J3,4,Pin_4*%
%TO.N,GND_LED*%
X118110000Y-138430000D03*
%TO.P,J3,5,Pin_5*%
%TO.N,Net-(J3-Pin_5)*%
X123190000Y-138430000D03*
%TO.P,J3,6,Pin_6*%
%TO.N,GND_LED*%
X128270000Y-138430000D03*
%TO.P,J3,7,Pin_7*%
%TO.N,Net-(J3-Pin_7)*%
X133350000Y-138430000D03*
%TO.P,J3,8,Pin_8*%
%TO.N,GND_LED*%
X138430000Y-138430000D03*
%TD*%
D16*
%TO.P,Q11,1,G*%
%TO.N,Net-(Q11-G)*%
X128270000Y-120650000D03*
D17*
%TO.P,Q11,2,D*%
%TO.N,Net-(Q11-D)*%
X128270000Y-123190000D03*
%TO.P,Q11,3,S*%
%TO.N,GND_LED*%
X128270000Y-125730000D03*
%TD*%
D16*
%TO.P,Q7,1,G*%
%TO.N,Net-(Q7-G)*%
X118110000Y-80645000D03*
D17*
%TO.P,Q7,2,D*%
%TO.N,GND_LED*%
X118110000Y-78105000D03*
%TO.P,Q7,3,S*%
X118110000Y-75565000D03*
%TD*%
D16*
%TO.P,Q6,1,G*%
%TO.N,Net-(Q6-G)*%
X128270000Y-80645000D03*
D17*
%TO.P,Q6,2,D*%
%TO.N,Net-(Q6-D)*%
X128270000Y-78105000D03*
%TO.P,Q6,3,S*%
%TO.N,GND_LED*%
X128270000Y-75565000D03*
%TD*%
D16*
%TO.P,Q5,1,G*%
%TO.N,Net-(Q5-G)*%
X138430000Y-80645000D03*
D17*
%TO.P,Q5,2,D*%
%TO.N,Net-(Q5-D)*%
X138430000Y-78105000D03*
%TO.P,Q5,3,S*%
%TO.N,GND_LED*%
X138430000Y-75565000D03*
%TD*%
D12*
%TO.P,J2,1,Pin_1*%
%TO.N,GND_LED*%
X102870000Y-64770000D03*
D13*
%TO.P,J2,2,Pin_2*%
X107950000Y-64770000D03*
%TO.P,J2,3,Pin_3*%
X113030000Y-64770000D03*
%TO.P,J2,4,Pin_4*%
X118110000Y-64770000D03*
%TO.P,J2,5,Pin_5*%
%TO.N,Net-(J2-Pin_5)*%
X123190000Y-64770000D03*
%TO.P,J2,6,Pin_6*%
%TO.N,GND_LED*%
X128270000Y-64770000D03*
%TO.P,J2,7,Pin_7*%
%TO.N,Net-(J2-Pin_7)*%
X133350000Y-64770000D03*
%TO.P,J2,8,Pin_8*%
%TO.N,GND_LED*%
X138430000Y-64770000D03*
%TD*%
D16*
%TO.P,Q1,1,G*%
%TO.N,Net-(Q1-G)*%
X193040000Y-80645000D03*
D17*
%TO.P,Q1,2,D*%
%TO.N,Net-(Q1-D)*%
X193040000Y-78105000D03*
%TO.P,Q1,3,S*%
%TO.N,GND_LED*%
X193040000Y-75565000D03*
%TD*%
D16*
%TO.P,Q8,1,G*%
%TO.N,Net-(Q8-G)*%
X107950000Y-80645000D03*
D17*
%TO.P,Q8,2,D*%
%TO.N,GND_LED*%
X107950000Y-78105000D03*
%TO.P,Q8,3,S*%
X107950000Y-75565000D03*
%TD*%
D16*
%TO.P,Q4,1,G*%
%TO.N,Net-(Q4-G)*%
X162560000Y-80645000D03*
D17*
%TO.P,Q4,2,D*%
%TO.N,Net-(Q4-D)*%
X162560000Y-78105000D03*
%TO.P,Q4,3,S*%
%TO.N,GND_LED*%
X162560000Y-75565000D03*
%TD*%
D16*
%TO.P,Q10,1,G*%
%TO.N,Net-(Q10-G)*%
X118110000Y-120650000D03*
D17*
%TO.P,Q10,2,D*%
%TO.N,Net-(Q10-D)*%
X118110000Y-123190000D03*
%TO.P,Q10,3,S*%
%TO.N,GND_LED*%
X118110000Y-125730000D03*
%TD*%
D16*
%TO.P,Q14,1,G*%
%TO.N,Net-(Q14-G)*%
X172085000Y-120650000D03*
D17*
%TO.P,Q14,2,D*%
%TO.N,Net-(Q14-D)*%
X172085000Y-123190000D03*
%TO.P,Q14,3,S*%
%TO.N,GND_LED*%
X172085000Y-125730000D03*
%TD*%
D16*
%TO.P,Q9,1,G*%
%TO.N,Net-(Q9-G)*%
X107950000Y-120650000D03*
D17*
%TO.P,Q9,2,D*%
%TO.N,Net-(Q9-D)*%
X107950000Y-123190000D03*
%TO.P,Q9,3,S*%
%TO.N,GND_LED*%
X107950000Y-125730000D03*
%TD*%
D16*
%TO.P,Q12,1,G*%
%TO.N,Net-(Q12-G)*%
X138430000Y-120650000D03*
D17*
%TO.P,Q12,2,D*%
%TO.N,Net-(Q12-D)*%
X138430000Y-123190000D03*
%TO.P,Q12,3,S*%
%TO.N,GND_LED*%
X138430000Y-125730000D03*
%TD*%
D16*
%TO.P,Q2,1,G*%
%TO.N,Net-(Q2-G)*%
X182880000Y-80645000D03*
D17*
%TO.P,Q2,2,D*%
%TO.N,Net-(Q2-D)*%
X182880000Y-78105000D03*
%TO.P,Q2,3,S*%
%TO.N,GND_LED*%
X182880000Y-75565000D03*
%TD*%
D11*
%TO.P,C2,1*%
%TO.N,Net-(J5-Pin_2)*%
X178132176Y-97007930D03*
%TO.P,C2,2*%
%TO.N,GND_LED*%
X173132176Y-97007930D03*
%TD*%
D16*
%TO.P,Q15,1,G*%
%TO.N,Net-(Q15-G)*%
X182245000Y-120650000D03*
D17*
%TO.P,Q15,2,D*%
%TO.N,Net-(Q15-D)*%
X182245000Y-123190000D03*
%TO.P,Q15,3,S*%
%TO.N,GND_LED*%
X182245000Y-125730000D03*
%TD*%
D16*
%TO.P,U2,1,IN*%
%TO.N,Net-(J5-Pin_2)*%
X178125000Y-101600000D03*
D17*
%TO.P,U2,2,GND*%
%TO.N,GND_LED*%
X178125000Y-104140000D03*
%TO.P,U2,3,OUT*%
%TO.N,Net-(U1-VDD2)*%
X178125000Y-106680000D03*
%TD*%
D16*
%TO.P,Q3,1,G*%
%TO.N,Net-(Q3-G)*%
X172720000Y-80645000D03*
D17*
%TO.P,Q3,2,D*%
%TO.N,Net-(Q3-D)*%
X172720000Y-78105000D03*
%TO.P,Q3,3,S*%
%TO.N,GND_LED*%
X172720000Y-75565000D03*
%TD*%
D16*
%TO.P,Q13,1,G*%
%TO.N,Net-(Q13-G)*%
X161925000Y-120650000D03*
D17*
%TO.P,Q13,2,D*%
%TO.N,Net-(Q13-D)*%
X161925000Y-123190000D03*
%TO.P,Q13,3,S*%
%TO.N,GND_LED*%
X161925000Y-125730000D03*
%TD*%
D11*
%TO.P,C1,1*%
%TO.N,GND_LED*%
X182880000Y-111760000D03*
%TO.P,C1,2*%
%TO.N,Net-(U1-VDD2)*%
X177880000Y-111760000D03*
%TD*%
D18*
%TO.P,F11,1*%
%TO.N,Net-(J3-Pin_5)*%
X123190000Y-131445000D03*
%TO.P,F11,2*%
%TO.N,Net-(Q11-D)*%
X123190000Y-130475000D03*
%TD*%
%TO.P,F15,1*%
%TO.N,Net-(J4-Pin_5)*%
X177165000Y-130660000D03*
%TO.P,F15,2*%
%TO.N,Net-(Q15-D)*%
X177165000Y-129690000D03*
%TD*%
D19*
%TO.P,F1,1*%
%TO.N,Net-(J1-Pin_7)*%
X187960000Y-70635000D03*
%TO.P,F1,2*%
%TO.N,Net-(Q1-D)*%
X187960000Y-71605000D03*
%TD*%
D18*
%TO.P,F14,1*%
%TO.N,Net-(J4-Pin_3)*%
X167005000Y-130660000D03*
%TO.P,F14,2*%
%TO.N,Net-(Q14-D)*%
X167005000Y-129690000D03*
%TD*%
%TO.P,F9,1*%
%TO.N,Net-(J3-Pin_1)*%
X102870000Y-131295000D03*
%TO.P,F9,2*%
%TO.N,Net-(Q9-D)*%
X102870000Y-130325000D03*
%TD*%
D19*
%TO.P,F8,1*%
%TO.N,GND_LED*%
X102870000Y-70485000D03*
%TO.P,F8,2*%
X102870000Y-71455000D03*
%TD*%
%TO.P,F3,1*%
%TO.N,Net-(J1-Pin_3)*%
X167640000Y-70635000D03*
%TO.P,F3,2*%
%TO.N,Net-(Q3-D)*%
X167640000Y-71605000D03*
%TD*%
D18*
%TO.P,F10,1*%
%TO.N,Net-(J3-Pin_3)*%
X113030000Y-131445000D03*
%TO.P,F10,2*%
%TO.N,Net-(Q10-D)*%
X113030000Y-130475000D03*
%TD*%
D19*
%TO.P,F4,1*%
%TO.N,Net-(J1-Pin_1)*%
X157480000Y-70635000D03*
%TO.P,F4,2*%
%TO.N,Net-(Q4-D)*%
X157480000Y-71605000D03*
%TD*%
%TO.P,F2,1*%
%TO.N,Net-(J1-Pin_5)*%
X177800000Y-70635000D03*
%TO.P,F2,2*%
%TO.N,Net-(Q2-D)*%
X177800000Y-71605000D03*
%TD*%
D18*
%TO.P,F13,1*%
%TO.N,Net-(J4-Pin_1)*%
X156845000Y-130660000D03*
%TO.P,F13,2*%
%TO.N,Net-(Q13-D)*%
X156845000Y-129690000D03*
%TD*%
%TO.P,F16,1*%
%TO.N,Net-(J4-Pin_7)*%
X187325000Y-130810000D03*
%TO.P,F16,2*%
%TO.N,Net-(Q16-D)*%
X187325000Y-129840000D03*
%TD*%
D19*
%TO.P,F7,1*%
%TO.N,GND_LED*%
X113030000Y-70635000D03*
%TO.P,F7,2*%
X113030000Y-71605000D03*
%TD*%
%TO.P,F5,1*%
%TO.N,Net-(J2-Pin_7)*%
X133350000Y-70635000D03*
%TO.P,F5,2*%
%TO.N,Net-(Q5-D)*%
X133350000Y-71605000D03*
%TD*%
D18*
%TO.P,F12,1*%
%TO.N,Net-(J3-Pin_7)*%
X133350000Y-131295000D03*
%TO.P,F12,2*%
%TO.N,Net-(Q12-D)*%
X133350000Y-130325000D03*
%TD*%
D19*
%TO.P,F6,1*%
%TO.N,Net-(J2-Pin_5)*%
X123190000Y-70635000D03*
%TO.P,F6,2*%
%TO.N,Net-(Q6-D)*%
X123190000Y-71605000D03*
%TD*%
D20*
%TO.N,GND_LED*%
X118110000Y-71120000D03*
X138430000Y-71120000D03*
X182880000Y-71120000D03*
X182245000Y-131445000D03*
X162560000Y-71120000D03*
X172720000Y-71120000D03*
X193040000Y-71120000D03*
X138430000Y-131445000D03*
X186055000Y-106680000D03*
X118110000Y-131445000D03*
X107950000Y-71120000D03*
X172085000Y-131445000D03*
X128270000Y-71120000D03*
X107950000Y-131445000D03*
X192405000Y-131445000D03*
X128270000Y-131445000D03*
X161925000Y-131445000D03*
%TO.N,Net-(Q1-G)*%
X187960000Y-80645000D03*
%TO.N,Net-(Q2-G)*%
X177800000Y-80645000D03*
%TO.N,Net-(Q3-G)*%
X167640000Y-80645000D03*
%TO.N,Net-(Q4-G)*%
X157480000Y-80645000D03*
%TO.N,Net-(Q5-G)*%
X133350000Y-80645000D03*
%TO.N,Net-(Q6-G)*%
X123190000Y-80645000D03*
%TO.N,Net-(Q7-G)*%
X113030000Y-80645000D03*
%TO.N,Net-(Q8-G)*%
X102870000Y-80645000D03*
%TO.N,Net-(Q9-G)*%
X104775000Y-120650000D03*
%TO.N,Net-(Q10-G)*%
X114935000Y-120650000D03*
%TO.N,Net-(Q11-G)*%
X125095000Y-120650000D03*
%TO.N,Net-(Q12-G)*%
X135255000Y-120650000D03*
%TO.N,Net-(Q13-G)*%
X158750000Y-120650000D03*
%TO.N,Net-(Q14-G)*%
X168910000Y-120650000D03*
%TO.N,Net-(Q15-G)*%
X179070000Y-120650000D03*
%TO.N,Net-(Q16-G)*%
X189230000Y-120650000D03*
%TO.N,Net-(U1-SDA2)*%
X143510000Y-104775000D03*
X143510000Y-100330000D03*
%TO.N,Net-(U1-SCL2)*%
X141605000Y-99060000D03*
X141605000Y-106680000D03*
%TO.N,Net-(J5-Pin_2)*%
X182880000Y-101600000D03*
%TD*%
D21*
%TO.N,GND_LED*%
X128270000Y-125730000D02*
X128270000Y-131445000D01*
X138430000Y-131445000D02*
X138430000Y-138430000D01*
X192405000Y-137795000D02*
X192405000Y-131445000D01*
X118110000Y-71120000D02*
X118110000Y-75565000D01*
X182880000Y-64770000D02*
X182880000Y-71120000D01*
X118110000Y-125730000D02*
X118110000Y-131445000D01*
X138430000Y-75565000D02*
X138430000Y-71120000D01*
X118110000Y-131445000D02*
X118110000Y-138430000D01*
D22*
X107950000Y-71120000D02*
X107950000Y-75565000D01*
D21*
X107950000Y-131445000D02*
X107950000Y-138430000D01*
X128270000Y-131445000D02*
X128270000Y-138430000D01*
X161925000Y-131445000D02*
X161925000Y-126055000D01*
X138430000Y-71120000D02*
X138430000Y-64770000D01*
X182880000Y-71120000D02*
X182880000Y-75565000D01*
X172085000Y-125730000D02*
X172085000Y-131445000D01*
X161925000Y-126055000D02*
X162250000Y-125730000D01*
X128270000Y-64770000D02*
X128270000Y-71120000D01*
X128270000Y-71120000D02*
X128270000Y-75565000D01*
X138430000Y-125730000D02*
X138430000Y-131445000D01*
X172720000Y-71120000D02*
X172720000Y-75565000D01*
X162560000Y-64770000D02*
X162560000Y-71120000D01*
X193040000Y-106680000D02*
X186055000Y-106680000D01*
X118110000Y-64770000D02*
X118110000Y-71120000D01*
D22*
X107950000Y-64770000D02*
X107950000Y-71120000D01*
D21*
X161925000Y-137795000D02*
X161925000Y-131445000D01*
X172085000Y-131445000D02*
X172085000Y-137795000D01*
X182245000Y-131445000D02*
X182245000Y-125730000D01*
X192405000Y-131445000D02*
X192405000Y-125730000D01*
X172720000Y-64770000D02*
X172720000Y-71120000D01*
X182245000Y-137795000D02*
X182245000Y-131445000D01*
X193040000Y-71120000D02*
X193040000Y-75565000D01*
X107950000Y-125730000D02*
X107950000Y-131445000D01*
X193040000Y-64770000D02*
X193040000Y-71120000D01*
X172085000Y-137795000D02*
X172410000Y-137470000D01*
X162560000Y-71120000D02*
X162560000Y-75565000D01*
%TO.N,Net-(J1-Pin_5)*%
X177800000Y-64770000D02*
X177800000Y-70635000D01*
%TO.N,Net-(J1-Pin_7)*%
X187960000Y-64770000D02*
X187960000Y-70635000D01*
%TO.N,Net-(J1-Pin_1)*%
X157480000Y-64770000D02*
X157480000Y-70635000D01*
%TO.N,Net-(J1-Pin_3)*%
X167640000Y-64770000D02*
X167640000Y-70635000D01*
D22*
%TO.N,GND_LED*%
X102870000Y-70485000D02*
X102870000Y-64770000D01*
D21*
%TO.N,Net-(J2-Pin_5)*%
X123190000Y-70635000D02*
X123190000Y-64770000D01*
%TO.N,Net-(J2-Pin_7)*%
X133350000Y-64770000D02*
X133350000Y-70485000D01*
%TO.N,GND_LED*%
X113030000Y-70635000D02*
X113030000Y-64770000D01*
%TO.N,Net-(J3-Pin_7)*%
X133350000Y-138430000D02*
X133350000Y-131445000D01*
%TO.N,Net-(J3-Pin_3)*%
X113030000Y-138430000D02*
X113030000Y-131445000D01*
%TO.N,Net-(J3-Pin_1)*%
X102870000Y-131295000D02*
X102870000Y-138430000D01*
%TO.N,Net-(J4-Pin_5)*%
X177165000Y-130660000D02*
X177165000Y-137795000D01*
%TO.N,Net-(J4-Pin_3)*%
X167005000Y-137795000D02*
X167005000Y-130660000D01*
%TO.N,Net-(J4-Pin_7)*%
X187325000Y-130810000D02*
X187325000Y-137795000D01*
%TO.N,Net-(J4-Pin_1)*%
X156845000Y-137795000D02*
X156845000Y-130660000D01*
%TO.N,Net-(Q1-D)*%
X187960000Y-71605000D02*
X187960000Y-78105000D01*
X187960000Y-78105000D02*
X193040000Y-78105000D01*
%TO.N,Net-(Q1-G)*%
X193040000Y-80645000D02*
X187960000Y-80645000D01*
%TO.N,Net-(Q2-D)*%
X177800000Y-71605000D02*
X177800000Y-78105000D01*
X177800000Y-78105000D02*
X182880000Y-78105000D01*
%TO.N,Net-(Q2-G)*%
X182880000Y-80645000D02*
X177800000Y-80645000D01*
%TO.N,Net-(Q3-D)*%
X172720000Y-78105000D02*
X167640000Y-78105000D01*
X167640000Y-78105000D02*
X167640000Y-71605000D01*
%TO.N,Net-(Q3-G)*%
X172720000Y-80645000D02*
X167640000Y-80645000D01*
%TO.N,Net-(Q4-D)*%
X157480000Y-78105000D02*
X162560000Y-78105000D01*
X157480000Y-71605000D02*
X157480000Y-78105000D01*
%TO.N,Net-(Q4-G)*%
X162560000Y-80645000D02*
X157480000Y-80645000D01*
%TO.N,Net-(Q5-G)*%
X138430000Y-80645000D02*
X133350000Y-80645000D01*
%TO.N,Net-(Q5-D)*%
X133350000Y-78105000D02*
X138430000Y-78105000D01*
X133350000Y-71605000D02*
X133350000Y-78105000D01*
%TO.N,Net-(Q6-D)*%
X123190000Y-78105000D02*
X123190000Y-71605000D01*
X128270000Y-78105000D02*
X123190000Y-78105000D01*
%TO.N,Net-(Q6-G)*%
X128270000Y-80645000D02*
X123190000Y-80645000D01*
%TO.N,GND_LED*%
X113030000Y-71605000D02*
X113030000Y-78105000D01*
X113030000Y-78105000D02*
X118110000Y-78105000D01*
%TO.N,Net-(Q7-G)*%
X118110000Y-80645000D02*
X113030000Y-80645000D01*
D22*
%TO.N,GND_LED*%
X107950000Y-78105000D02*
X102870000Y-78105000D01*
X102870000Y-78105000D02*
X102870000Y-71455000D01*
D21*
%TO.N,Net-(Q8-G)*%
X107950000Y-80645000D02*
X102870000Y-80645000D01*
%TO.N,Net-(Q9-G)*%
X107950000Y-120650000D02*
X104775000Y-120650000D01*
%TO.N,Net-(Q10-G)*%
X118110000Y-120650000D02*
X114935000Y-120650000D01*
%TO.N,Net-(Q11-G)*%
X128270000Y-120650000D02*
X125095000Y-120650000D01*
%TO.N,Net-(Q12-G)*%
X138430000Y-120650000D02*
X135255000Y-120650000D01*
%TO.N,Net-(Q13-D)*%
X161925000Y-123190000D02*
X156845000Y-123190000D01*
X156845000Y-123190000D02*
X156845000Y-129690000D01*
%TO.N,Net-(Q13-G)*%
X161925000Y-120650000D02*
X158750000Y-120650000D01*
%TO.N,Net-(Q14-G)*%
X172085000Y-120650000D02*
X168910000Y-120650000D01*
%TO.N,Net-(Q14-D)*%
X167005000Y-129690000D02*
X167005000Y-123190000D01*
X167005000Y-123190000D02*
X172085000Y-123190000D01*
%TO.N,Net-(Q15-D)*%
X177165000Y-123190000D02*
X177165000Y-129690000D01*
X182245000Y-123190000D02*
X177165000Y-123190000D01*
%TO.N,Net-(Q15-G)*%
X182245000Y-120650000D02*
X179070000Y-120650000D01*
%TO.N,Net-(Q16-D)*%
X187325000Y-129840000D02*
X187325000Y-123190000D01*
X187325000Y-123190000D02*
X192405000Y-123190000D01*
%TO.N,Net-(Q16-G)*%
X192405000Y-120650000D02*
X189230000Y-120650000D01*
%TO.N,Net-(U1-SDA2)*%
X143510000Y-104775000D02*
X143510000Y-100330000D01*
%TO.N,Net-(Q9-D)*%
X102870000Y-130325000D02*
X102870000Y-123190000D01*
X102870000Y-123190000D02*
X107950000Y-123190000D01*
%TO.N,Net-(Q10-D)*%
X118110000Y-123190000D02*
X113030000Y-123190000D01*
X113030000Y-123190000D02*
X113030000Y-130475000D01*
%TO.N,Net-(Q11-D)*%
X123190000Y-123190000D02*
X123190000Y-130475000D01*
X128270000Y-123190000D02*
X123190000Y-123190000D01*
%TO.N,Net-(Q12-D)*%
X133350000Y-123190000D02*
X138430000Y-123190000D01*
X133350000Y-130325000D02*
X133350000Y-123190000D01*
%TO.N,Net-(U1-SCL2)*%
X141605000Y-106680000D02*
X141605000Y-99060000D01*
%TO.N,Net-(J5-Pin_2)*%
X193040000Y-101600000D02*
X182880000Y-101600000D01*
%TD*%
M02*
