%TF.GenerationSoftware,KiCad,Pcbnew,8.0.5*%
%TF.CreationDate,2024-10-15T20:37:22+02:00*%
%TF.ProjectId,LED_16x24V_REG4_VERSION_B,4c45445f-3136-4783-9234-565f52454734,rev?*%
%TF.SameCoordinates,Original*%
%TF.FileFunction,Copper,L1,Top*%
%TF.FilePolarity,Positive*%
%FSLAX46Y46*%
G04 Gerber Fmt 4.6, Leading zero omitted, Abs format (unit mm)*
G04 Created by KiCad (PCBNEW 8.0.5) date 2024-10-15 20:37:22*
%MOMM*%
%LPD*%
G01*
G04 APERTURE LIST*
G04 Aperture macros list*
%AMRoundRect*
0 Rectangle with rounded corners*
0 $1 Rounding radius*
0 $2 $3 $4 $5 $6 $7 $8 $9 X,Y pos of 4 corners*
0 Add a 4 corners polygon primitive as box body*
4,1,4,$2,$3,$4,$5,$6,$7,$8,$9,$2,$3,0*
0 Add four circle primitives for the rounded corners*
1,1,$1+$1,$2,$3*
1,1,$1+$1,$4,$5*
1,1,$1+$1,$6,$7*
1,1,$1+$1,$8,$9*
0 Add four rect primitives between the rounded corners*
20,1,$1+$1,$2,$3,$4,$5,0*
20,1,$1+$1,$4,$5,$6,$7,0*
20,1,$1+$1,$6,$7,$8,$9,0*
20,1,$1+$1,$8,$9,$2,$3,0*%
G04 Aperture macros list end*
%TA.AperFunction,SMDPad,CuDef*%
%ADD10RoundRect,0.250000X-0.450000X0.262500X-0.450000X-0.262500X0.450000X-0.262500X0.450000X0.262500X0*%
%TD*%
%TA.AperFunction,SMDPad,CuDef*%
%ADD11RoundRect,0.250000X0.450000X-0.262500X0.450000X0.262500X-0.450000X0.262500X-0.450000X-0.262500X0*%
%TD*%
%TA.AperFunction,ComponentPad*%
%ADD12R,1.600000X1.600000*%
%TD*%
%TA.AperFunction,ComponentPad*%
%ADD13C,1.600000*%
%TD*%
%TA.AperFunction,ComponentPad*%
%ADD14RoundRect,0.249999X-0.790001X-1.550001X0.790001X-1.550001X0.790001X1.550001X-0.790001X1.550001X0*%
%TD*%
%TA.AperFunction,ComponentPad*%
%ADD15O,2.080000X3.600000*%
%TD*%
%TA.AperFunction,ComponentPad*%
%ADD16RoundRect,0.249999X1.550001X-0.790001X1.550001X0.790001X-1.550001X0.790001X-1.550001X-0.790001X0*%
%TD*%
%TA.AperFunction,ComponentPad*%
%ADD17O,3.600000X2.080000*%
%TD*%
%TA.AperFunction,ComponentPad*%
%ADD18R,2.000000X1.905000*%
%TD*%
%TA.AperFunction,ComponentPad*%
%ADD19O,2.000000X1.905000*%
%TD*%
%TA.AperFunction,SMDPad,CuDef*%
%ADD20RoundRect,0.250000X0.262500X0.450000X-0.262500X0.450000X-0.262500X-0.450000X0.262500X-0.450000X0*%
%TD*%
%TA.AperFunction,SMDPad,CuDef*%
%ADD21RoundRect,0.100000X-0.100000X0.637500X-0.100000X-0.637500X0.100000X-0.637500X0.100000X0.637500X0*%
%TD*%
%TA.AperFunction,SMDPad,CuDef*%
%ADD22RoundRect,0.150000X0.825000X0.150000X-0.825000X0.150000X-0.825000X-0.150000X0.825000X-0.150000X0*%
%TD*%
%TA.AperFunction,ViaPad*%
%ADD23C,0.800000*%
%TD*%
%TA.AperFunction,Conductor*%
%ADD24C,0.250000*%
%TD*%
G04 APERTURE END LIST*
D10*
%TO.P,R81,1*%
%TO.N,Net-(Q8-G)*%
X102870000Y-83185000D03*
%TO.P,R81,2*%
%TO.N,Net-(U100-LED7)*%
X102870000Y-85010000D03*
%TD*%
D11*
%TO.P,R141,1*%
%TO.N,Net-(Q14-G)*%
X168910000Y-118387500D03*
%TO.P,R141,2*%
%TO.N,Net-(U100-LED13)*%
X168910000Y-116562500D03*
%TD*%
D10*
%TO.P,R71,1*%
%TO.N,Net-(Q7-G)*%
X113030000Y-83185000D03*
%TO.P,R71,2*%
%TO.N,Net-(U100-LED6)*%
X113030000Y-85010000D03*
%TD*%
D11*
%TO.P,R12,1*%
%TO.N,Net-(Q1-G)*%
X187960000Y-78105000D03*
%TO.P,R12,2*%
%TO.N,GND_LED*%
X187960000Y-76280000D03*
%TD*%
D10*
%TO.P,R31,1*%
%TO.N,Net-(Q3-G)*%
X167640000Y-82272500D03*
%TO.P,R31,2*%
%TO.N,Net-(U100-LED2)*%
X167640000Y-84097500D03*
%TD*%
D12*
%TO.P,C3,1*%
%TO.N,Net-(U1-VDD2)*%
X171450000Y-106640000D03*
D13*
%TO.P,C3,2*%
%TO.N,GND_LED*%
X171450000Y-104140000D03*
%TD*%
D14*
%TO.P,J4,1,Pin_1*%
%TO.N,Net-(J4-Pin_1)*%
X156845000Y-138430000D03*
D15*
%TO.P,J4,2,Pin_2*%
%TO.N,GND_LED*%
X161925000Y-138430000D03*
%TO.P,J4,3,Pin_3*%
%TO.N,Net-(J4-Pin_3)*%
X167005000Y-138430000D03*
%TO.P,J4,4,Pin_4*%
%TO.N,GND_LED*%
X172085000Y-138430000D03*
%TO.P,J4,5,Pin_5*%
%TO.N,Net-(J4-Pin_5)*%
X177165000Y-138430000D03*
%TO.P,J4,6,Pin_6*%
%TO.N,GND_LED*%
X182245000Y-138430000D03*
%TO.P,J4,7,Pin_7*%
%TO.N,Net-(J4-Pin_7)*%
X187325000Y-138430000D03*
%TO.P,J4,8,Pin_8*%
%TO.N,GND_LED*%
X192405000Y-138430000D03*
%TD*%
D10*
%TO.P,R142,1*%
%TO.N,Net-(Q14-G)*%
X168910000Y-124460000D03*
%TO.P,R142,2*%
%TO.N,GND_LED*%
X168910000Y-126285000D03*
%TD*%
D16*
%TO.P,J5,1,Pin_1*%
%TO.N,GND_LED*%
X193040000Y-106680000D03*
D17*
%TO.P,J5,2,Pin_2*%
%TO.N,Net-(J5-Pin_2)*%
X193040000Y-101600000D03*
%TD*%
D11*
%TO.P,R101,1*%
%TO.N,Net-(Q10-G)*%
X114935000Y-118387500D03*
%TO.P,R101,2*%
%TO.N,Net-(U100-LED9)*%
X114935000Y-116562500D03*
%TD*%
D14*
%TO.P,J1,1,Pin_1*%
%TO.N,Net-(J1-Pin_1)*%
X157480000Y-64770000D03*
D15*
%TO.P,J1,2,Pin_2*%
%TO.N,GND_LED*%
X162560000Y-64770000D03*
%TO.P,J1,3,Pin_3*%
%TO.N,Net-(J1-Pin_3)*%
X167640000Y-64770000D03*
%TO.P,J1,4,Pin_4*%
%TO.N,GND_LED*%
X172720000Y-64770000D03*
%TO.P,J1,5,Pin_5*%
%TO.N,Net-(J1-Pin_5)*%
X177800000Y-64770000D03*
%TO.P,J1,6,Pin_6*%
%TO.N,GND_LED*%
X182880000Y-64770000D03*
%TO.P,J1,7,Pin_7*%
%TO.N,Net-(J1-Pin_7)*%
X187960000Y-64770000D03*
%TO.P,J1,8,Pin_8*%
%TO.N,GND_LED*%
X193040000Y-64770000D03*
%TD*%
D18*
%TO.P,Q16,1,G*%
%TO.N,Net-(Q16-G)*%
X192405000Y-120650000D03*
D19*
%TO.P,Q16,2,D*%
%TO.N,Net-(Q16-D)*%
X192405000Y-123190000D03*
%TO.P,Q16,3,S*%
%TO.N,GND_LED*%
X192405000Y-125730000D03*
%TD*%
D14*
%TO.P,J3,1,Pin_1*%
%TO.N,Net-(J3-Pin_1)*%
X102870000Y-138430000D03*
D15*
%TO.P,J3,2,Pin_2*%
%TO.N,GND_LED*%
X107950000Y-138430000D03*
%TO.P,J3,3,Pin_3*%
%TO.N,Net-(J3-Pin_3)*%
X113030000Y-138430000D03*
%TO.P,J3,4,Pin_4*%
%TO.N,GND_LED*%
X118110000Y-138430000D03*
%TO.P,J3,5,Pin_5*%
%TO.N,Net-(J3-Pin_5)*%
X123190000Y-138430000D03*
%TO.P,J3,6,Pin_6*%
%TO.N,GND_LED*%
X128270000Y-138430000D03*
%TO.P,J3,7,Pin_7*%
%TO.N,Net-(J3-Pin_7)*%
X133350000Y-138430000D03*
%TO.P,J3,8,Pin_8*%
%TO.N,GND_LED*%
X138430000Y-138430000D03*
%TD*%
D11*
%TO.P,R111,1*%
%TO.N,Net-(Q11-G)*%
X125095000Y-118387500D03*
%TO.P,R111,2*%
%TO.N,Net-(U100-LED10)*%
X125095000Y-116562500D03*
%TD*%
%TO.P,R161,1*%
%TO.N,Net-(Q16-G)*%
X189230000Y-118387500D03*
%TO.P,R161,2*%
%TO.N,Net-(U100-LED15)*%
X189230000Y-116562500D03*
%TD*%
%TO.P,R42,1*%
%TO.N,Net-(Q4-G)*%
X157480000Y-77747500D03*
%TO.P,R42,2*%
%TO.N,GND_LED*%
X157480000Y-75922500D03*
%TD*%
%TO.P,R52,1*%
%TO.N,Net-(Q5-G)*%
X133350000Y-77470000D03*
%TO.P,R52,2*%
%TO.N,GND_LED*%
X133350000Y-75645000D03*
%TD*%
D18*
%TO.P,Q11,1,G*%
%TO.N,Net-(Q11-G)*%
X128270000Y-120650000D03*
D19*
%TO.P,Q11,2,D*%
%TO.N,Net-(Q11-D)*%
X128270000Y-123190000D03*
%TO.P,Q11,3,S*%
%TO.N,GND_LED*%
X128270000Y-125730000D03*
%TD*%
D18*
%TO.P,Q7,1,G*%
%TO.N,Net-(Q7-G)*%
X118110000Y-80645000D03*
D19*
%TO.P,Q7,2,D*%
%TO.N,GND_LED*%
X118110000Y-78105000D03*
%TO.P,Q7,3,S*%
X118110000Y-75565000D03*
%TD*%
D11*
%TO.P,R151,1*%
%TO.N,Net-(Q15-G)*%
X179070000Y-118387500D03*
%TO.P,R151,2*%
%TO.N,Net-(U100-LED14)*%
X179070000Y-116562500D03*
%TD*%
D10*
%TO.P,R162,1*%
%TO.N,Net-(Q16-G)*%
X189230000Y-123905000D03*
%TO.P,R162,2*%
%TO.N,GND_LED*%
X189230000Y-125730000D03*
%TD*%
%TO.P,R122,1*%
%TO.N,Net-(Q12-G)*%
X135255000Y-124182500D03*
%TO.P,R122,2*%
%TO.N,GND_LED*%
X135255000Y-126007500D03*
%TD*%
%TO.P,R112,1*%
%TO.N,Net-(Q11-G)*%
X125095000Y-124182500D03*
%TO.P,R112,2*%
%TO.N,GND_LED*%
X125095000Y-126007500D03*
%TD*%
%TO.P,R41,1*%
%TO.N,Net-(Q4-G)*%
X157480000Y-82272500D03*
%TO.P,R41,2*%
%TO.N,Net-(U100-LED3)*%
X157480000Y-84097500D03*
%TD*%
D18*
%TO.P,Q6,1,G*%
%TO.N,Net-(Q6-G)*%
X128270000Y-80645000D03*
D19*
%TO.P,Q6,2,D*%
%TO.N,Net-(Q6-D)*%
X128270000Y-78105000D03*
%TO.P,Q6,3,S*%
%TO.N,GND_LED*%
X128270000Y-75565000D03*
%TD*%
D10*
%TO.P,R132,1*%
%TO.N,Net-(Q13-G)*%
X158750000Y-124182500D03*
%TO.P,R132,2*%
%TO.N,GND_LED*%
X158750000Y-126007500D03*
%TD*%
D18*
%TO.P,Q5,1,G*%
%TO.N,Net-(Q5-G)*%
X138430000Y-80645000D03*
D19*
%TO.P,Q5,2,D*%
%TO.N,Net-(Q5-D)*%
X138430000Y-78105000D03*
%TO.P,Q5,3,S*%
%TO.N,GND_LED*%
X138430000Y-75565000D03*
%TD*%
D11*
%TO.P,R72,1*%
%TO.N,Net-(Q7-G)*%
X113030000Y-77112500D03*
%TO.P,R72,2*%
%TO.N,GND_LED*%
X113030000Y-75287500D03*
%TD*%
D20*
%TO.P,R3,1*%
%TO.N,Net-(U1-VDD2)*%
X146962500Y-106680000D03*
%TO.P,R3,2*%
%TO.N,Net-(U1-SCL2)*%
X145137500Y-106680000D03*
%TD*%
D10*
%TO.P,R152,1*%
%TO.N,Net-(Q15-G)*%
X179070000Y-124182500D03*
%TO.P,R152,2*%
%TO.N,GND_LED*%
X179070000Y-126007500D03*
%TD*%
D11*
%TO.P,R62,1*%
%TO.N,Net-(Q6-G)*%
X123190000Y-77112500D03*
%TO.P,R62,2*%
%TO.N,GND_LED*%
X123190000Y-75287500D03*
%TD*%
D14*
%TO.P,J2,1,Pin_1*%
%TO.N,GND_LED*%
X102870000Y-64770000D03*
D15*
%TO.P,J2,2,Pin_2*%
X107950000Y-64770000D03*
%TO.P,J2,3,Pin_3*%
X113030000Y-64770000D03*
%TO.P,J2,4,Pin_4*%
X118110000Y-64770000D03*
%TO.P,J2,5,Pin_5*%
%TO.N,Net-(J2-Pin_5)*%
X123190000Y-64770000D03*
%TO.P,J2,6,Pin_6*%
%TO.N,GND_LED*%
X128270000Y-64770000D03*
%TO.P,J2,7,Pin_7*%
%TO.N,Net-(J2-Pin_7)*%
X133350000Y-64770000D03*
%TO.P,J2,8,Pin_8*%
%TO.N,GND_LED*%
X138430000Y-64770000D03*
%TD*%
D10*
%TO.P,R11,1*%
%TO.N,Net-(Q1-G)*%
X187960000Y-82272500D03*
%TO.P,R11,2*%
%TO.N,Net-(U100-LED0)*%
X187960000Y-84097500D03*
%TD*%
D18*
%TO.P,Q1,1,G*%
%TO.N,Net-(Q1-G)*%
X193040000Y-80645000D03*
D19*
%TO.P,Q1,2,D*%
%TO.N,Net-(Q1-D)*%
X193040000Y-78105000D03*
%TO.P,Q1,3,S*%
%TO.N,GND_LED*%
X193040000Y-75565000D03*
%TD*%
D18*
%TO.P,Q8,1,G*%
%TO.N,Net-(Q8-G)*%
X107950000Y-80645000D03*
D19*
%TO.P,Q8,2,D*%
%TO.N,GND_LED*%
X107950000Y-78105000D03*
%TO.P,Q8,3,S*%
X107950000Y-75565000D03*
%TD*%
D10*
%TO.P,R102,1*%
%TO.N,Net-(Q10-G)*%
X114935000Y-124182500D03*
%TO.P,R102,2*%
%TO.N,GND_LED*%
X114935000Y-126007500D03*
%TD*%
D11*
%TO.P,R121,1*%
%TO.N,Net-(Q12-G)*%
X135255000Y-118665000D03*
%TO.P,R121,2*%
%TO.N,Net-(U100-LED11)*%
X135255000Y-116840000D03*
%TD*%
D21*
%TO.P,U100,1,A0*%
%TO.N,GND_LED*%
X138430000Y-97155000D03*
%TO.P,U100,2,A1*%
X137780000Y-97155000D03*
%TO.P,U100,3,A2*%
X137130000Y-97155000D03*
%TO.P,U100,4,A3*%
X136480000Y-97155000D03*
%TO.P,U100,5,A4*%
X135830000Y-97155000D03*
%TO.P,U100,6,LED0*%
%TO.N,Net-(U100-LED0)*%
X135180000Y-97155000D03*
%TO.P,U100,7,LED1*%
%TO.N,Net-(U100-LED1)*%
X134530000Y-97155000D03*
%TO.P,U100,8,LED2*%
%TO.N,Net-(U100-LED2)*%
X133880000Y-97155000D03*
%TO.P,U100,9,LED3*%
%TO.N,Net-(U100-LED3)*%
X133230000Y-97155000D03*
%TO.P,U100,10,LED4*%
%TO.N,Net-(U100-LED4)*%
X132580000Y-97155000D03*
%TO.P,U100,11,LED5*%
%TO.N,Net-(U100-LED5)*%
X131930000Y-97155000D03*
%TO.P,U100,12,LED6*%
%TO.N,Net-(U100-LED6)*%
X131280000Y-97155000D03*
%TO.P,U100,13,LED7*%
%TO.N,Net-(U100-LED7)*%
X130630000Y-97155000D03*
%TO.P,U100,14,VSS*%
%TO.N,GND_LED*%
X129980000Y-97155000D03*
%TO.P,U100,15,LED8*%
%TO.N,Net-(U100-LED8)*%
X129980000Y-102880000D03*
%TO.P,U100,16,LED9*%
%TO.N,Net-(U100-LED9)*%
X130630000Y-102880000D03*
%TO.P,U100,17,LED10*%
%TO.N,Net-(U100-LED10)*%
X131280000Y-102880000D03*
%TO.P,U100,18,LED11*%
%TO.N,Net-(U100-LED11)*%
X131930000Y-102880000D03*
%TO.P,U100,19,LED12*%
%TO.N,Net-(U100-LED12)*%
X132580000Y-102880000D03*
%TO.P,U100,20,LED13*%
%TO.N,Net-(U100-LED13)*%
X133230000Y-102880000D03*
%TO.P,U100,21,LED14*%
%TO.N,Net-(U100-LED14)*%
X133880000Y-102880000D03*
%TO.P,U100,22,LED15*%
%TO.N,Net-(U100-LED15)*%
X134530000Y-102880000D03*
%TO.P,U100,23,~{OE}*%
%TO.N,Net-(U100-~{OE})*%
X135180000Y-102880000D03*
%TO.P,U100,24,A5*%
%TO.N,GND_LED*%
X135830000Y-102880000D03*
%TO.P,U100,25,EXTCLK*%
%TO.N,unconnected-(U100-EXTCLK-Pad25)*%
X136480000Y-102880000D03*
%TO.P,U100,26,SCL*%
%TO.N,Net-(U1-SCL2)*%
X137130000Y-102880000D03*
%TO.P,U100,27,SDA*%
%TO.N,Net-(U1-SDA2)*%
X137780000Y-102880000D03*
%TO.P,U100,28,VDD*%
%TO.N,Net-(U1-VDD2)*%
X138430000Y-102880000D03*
%TD*%
D10*
%TO.P,R51,1*%
%TO.N,Net-(Q5-G)*%
X133350000Y-82907500D03*
%TO.P,R51,2*%
%TO.N,Net-(U100-LED4)*%
X133350000Y-84732500D03*
%TD*%
%TO.P,R92,1*%
%TO.N,Net-(Q9-G)*%
X104775000Y-124182500D03*
%TO.P,R92,2*%
%TO.N,GND_LED*%
X104775000Y-126007500D03*
%TD*%
D18*
%TO.P,Q4,1,G*%
%TO.N,Net-(Q4-G)*%
X162560000Y-80645000D03*
D19*
%TO.P,Q4,2,D*%
%TO.N,Net-(Q4-D)*%
X162560000Y-78105000D03*
%TO.P,Q4,3,S*%
%TO.N,GND_LED*%
X162560000Y-75565000D03*
%TD*%
D10*
%TO.P,R21,1*%
%TO.N,Net-(Q2-G)*%
X177800000Y-82272500D03*
%TO.P,R21,2*%
%TO.N,Net-(U100-LED1)*%
X177800000Y-84097500D03*
%TD*%
%TO.P,R1,1*%
%TO.N,GND_LED*%
X136525000Y-108585000D03*
%TO.P,R1,2*%
%TO.N,Net-(U100-~{OE})*%
X136525000Y-110410000D03*
%TD*%
D18*
%TO.P,Q10,1,G*%
%TO.N,Net-(Q10-G)*%
X118110000Y-120650000D03*
D19*
%TO.P,Q10,2,D*%
%TO.N,Net-(Q10-D)*%
X118110000Y-123190000D03*
%TO.P,Q10,3,S*%
%TO.N,GND_LED*%
X118110000Y-125730000D03*
%TD*%
D18*
%TO.P,Q14,1,G*%
%TO.N,Net-(Q14-G)*%
X172085000Y-120650000D03*
D19*
%TO.P,Q14,2,D*%
%TO.N,Net-(Q14-D)*%
X172085000Y-123190000D03*
%TO.P,Q14,3,S*%
%TO.N,GND_LED*%
X172085000Y-125730000D03*
%TD*%
D11*
%TO.P,R32,1*%
%TO.N,Net-(Q3-G)*%
X167640000Y-78025000D03*
%TO.P,R32,2*%
%TO.N,GND_LED*%
X167640000Y-76200000D03*
%TD*%
D18*
%TO.P,Q9,1,G*%
%TO.N,Net-(Q9-G)*%
X107950000Y-120650000D03*
D19*
%TO.P,Q9,2,D*%
%TO.N,Net-(Q9-D)*%
X107950000Y-123190000D03*
%TO.P,Q9,3,S*%
%TO.N,GND_LED*%
X107950000Y-125730000D03*
%TD*%
D18*
%TO.P,Q12,1,G*%
%TO.N,Net-(Q12-G)*%
X138430000Y-120650000D03*
D19*
%TO.P,Q12,2,D*%
%TO.N,Net-(Q12-D)*%
X138430000Y-123190000D03*
%TO.P,Q12,3,S*%
%TO.N,GND_LED*%
X138430000Y-125730000D03*
%TD*%
D20*
%TO.P,R2,1*%
%TO.N,Net-(U1-VDD2)*%
X146962500Y-104775000D03*
%TO.P,R2,2*%
%TO.N,Net-(U1-SDA2)*%
X145137500Y-104775000D03*
%TD*%
D18*
%TO.P,Q2,1,G*%
%TO.N,Net-(Q2-G)*%
X182880000Y-80645000D03*
D19*
%TO.P,Q2,2,D*%
%TO.N,Net-(Q2-D)*%
X182880000Y-78105000D03*
%TO.P,Q2,3,S*%
%TO.N,GND_LED*%
X182880000Y-75565000D03*
%TD*%
D13*
%TO.P,C2,1*%
%TO.N,Net-(J5-Pin_2)*%
X178132176Y-97007930D03*
%TO.P,C2,2*%
%TO.N,GND_LED*%
X173132176Y-97007930D03*
%TD*%
D11*
%TO.P,R131,1*%
%TO.N,Net-(Q13-G)*%
X158750000Y-118387500D03*
%TO.P,R131,2*%
%TO.N,Net-(U100-LED12)*%
X158750000Y-116562500D03*
%TD*%
D18*
%TO.P,Q15,1,G*%
%TO.N,Net-(Q15-G)*%
X182245000Y-120650000D03*
D19*
%TO.P,Q15,2,D*%
%TO.N,Net-(Q15-D)*%
X182245000Y-123190000D03*
%TO.P,Q15,3,S*%
%TO.N,GND_LED*%
X182245000Y-125730000D03*
%TD*%
D18*
%TO.P,U2,1,IN*%
%TO.N,Net-(J5-Pin_2)*%
X178125000Y-101600000D03*
D19*
%TO.P,U2,2,GND*%
%TO.N,GND_LED*%
X178125000Y-104140000D03*
%TO.P,U2,3,OUT*%
%TO.N,Net-(U1-VDD2)*%
X178125000Y-106680000D03*
%TD*%
D18*
%TO.P,Q3,1,G*%
%TO.N,Net-(Q3-G)*%
X172720000Y-80645000D03*
D19*
%TO.P,Q3,2,D*%
%TO.N,Net-(Q3-D)*%
X172720000Y-78105000D03*
%TO.P,Q3,3,S*%
%TO.N,GND_LED*%
X172720000Y-75565000D03*
%TD*%
D18*
%TO.P,Q13,1,G*%
%TO.N,Net-(Q13-G)*%
X161925000Y-120650000D03*
D19*
%TO.P,Q13,2,D*%
%TO.N,Net-(Q13-D)*%
X161925000Y-123190000D03*
%TO.P,Q13,3,S*%
%TO.N,GND_LED*%
X161925000Y-125730000D03*
%TD*%
D22*
%TO.P,U1,1,VDD1*%
%TO.N,V+_\u00B5C*%
X153605000Y-101600000D03*
%TO.P,U1,2,SDA1*%
%TO.N,SDA_\u00B5C*%
X153605000Y-100330000D03*
%TO.P,U1,3,SCL1*%
%TO.N,SCL_\u00B5C*%
X153605000Y-99060000D03*
%TO.P,U1,4,GND1*%
%TO.N,GND_\u00B5C*%
X153605000Y-97790000D03*
%TO.P,U1,5,GND2*%
%TO.N,GND_LED*%
X148655000Y-97790000D03*
%TO.P,U1,6,SCL2*%
%TO.N,Net-(U1-SCL2)*%
X148655000Y-99060000D03*
%TO.P,U1,7,SDA2*%
%TO.N,Net-(U1-SDA2)*%
X148655000Y-100330000D03*
%TO.P,U1,8,VDD2*%
%TO.N,Net-(U1-VDD2)*%
X148655000Y-101600000D03*
%TD*%
D11*
%TO.P,R82,1*%
%TO.N,Net-(Q8-G)*%
X102870000Y-76835000D03*
%TO.P,R82,2*%
%TO.N,GND_LED*%
X102870000Y-75010000D03*
%TD*%
D13*
%TO.P,C1,1*%
%TO.N,GND_LED*%
X182880000Y-111760000D03*
%TO.P,C1,2*%
%TO.N,Net-(U1-VDD2)*%
X177880000Y-111760000D03*
%TD*%
D11*
%TO.P,R91,1*%
%TO.N,Net-(Q9-G)*%
X104775000Y-118387500D03*
%TO.P,R91,2*%
%TO.N,Net-(U100-LED8)*%
X104775000Y-116562500D03*
%TD*%
D10*
%TO.P,R61,1*%
%TO.N,Net-(Q6-G)*%
X123190000Y-82907500D03*
%TO.P,R61,2*%
%TO.N,Net-(U100-LED5)*%
X123190000Y-84732500D03*
%TD*%
D11*
%TO.P,R22,1*%
%TO.N,Net-(Q2-G)*%
X177800000Y-78105000D03*
%TO.P,R22,2*%
%TO.N,GND_LED*%
X177800000Y-76280000D03*
%TD*%
D23*
%TO.N,GND_LED*%
X118110000Y-71120000D03*
X138430000Y-71120000D03*
X182880000Y-71120000D03*
X182245000Y-131445000D03*
X162560000Y-71120000D03*
X172720000Y-71120000D03*
X193040000Y-71120000D03*
X138430000Y-131445000D03*
X186055000Y-106680000D03*
X118110000Y-131445000D03*
X107950000Y-71120000D03*
X172085000Y-131445000D03*
X128270000Y-71120000D03*
X107950000Y-131445000D03*
X192405000Y-131445000D03*
X128270000Y-131445000D03*
X161925000Y-131445000D03*
%TO.N,Net-(Q1-G)*%
X187960000Y-80645000D03*
%TO.N,Net-(Q2-G)*%
X177800000Y-80645000D03*
%TO.N,Net-(Q3-G)*%
X167640000Y-80645000D03*
%TO.N,Net-(Q4-G)*%
X157480000Y-80645000D03*
%TO.N,Net-(Q5-G)*%
X133350000Y-80645000D03*
%TO.N,Net-(Q6-G)*%
X123190000Y-80645000D03*
%TO.N,Net-(Q7-G)*%
X113030000Y-80645000D03*
%TO.N,Net-(Q8-G)*%
X102870000Y-80645000D03*
%TO.N,Net-(Q9-G)*%
X104775000Y-120650000D03*
%TO.N,Net-(Q10-G)*%
X114935000Y-120650000D03*
%TO.N,Net-(Q11-G)*%
X125095000Y-120650000D03*
%TO.N,Net-(Q12-G)*%
X135255000Y-120650000D03*
%TO.N,Net-(Q13-G)*%
X158750000Y-120650000D03*
%TO.N,Net-(Q14-G)*%
X168910000Y-120650000D03*
%TO.N,Net-(Q15-G)*%
X179070000Y-120650000D03*
%TO.N,Net-(Q16-G)*%
X189230000Y-120650000D03*
%TO.N,Net-(U1-SDA2)*%
X143510000Y-104775000D03*
X143510000Y-100330000D03*
%TO.N,Net-(U1-SCL2)*%
X141605000Y-99060000D03*
X141605000Y-106680000D03*
%TO.N,Net-(J5-Pin_2)*%
X182880000Y-101600000D03*
%TD*%
D24*
%TO.N,GND_LED*%
X187325000Y-112395000D02*
X196850000Y-112395000D01*
X102870000Y-71120000D02*
X99695000Y-71120000D01*
X99695000Y-131445000D02*
X104775000Y-131445000D01*
X99695000Y-71120000D02*
X99695000Y-88265000D01*
X130175000Y-99695000D02*
X135890000Y-99695000D01*
X107315000Y-131445000D02*
X114935000Y-131445000D01*
X135830000Y-99635000D02*
X135890000Y-99695000D01*
X114935000Y-131445000D02*
X125095000Y-131445000D01*
X157480000Y-75922500D02*
X157480000Y-71120000D01*
X196850000Y-71120000D02*
X193040000Y-71120000D01*
X187960000Y-76280000D02*
X187960000Y-71120000D01*
X107950000Y-131445000D02*
X107315000Y-131445000D01*
X135830000Y-102880000D02*
X135830000Y-99635000D01*
X136480000Y-99650000D02*
X136525000Y-99695000D01*
X113030000Y-71120000D02*
X113030000Y-75287500D01*
X135830000Y-102880000D02*
X135830000Y-107890000D01*
X173355000Y-104140000D02*
X171450000Y-104140000D01*
X133350000Y-71120000D02*
X133350000Y-75645000D01*
X128270000Y-71120000D02*
X133350000Y-71120000D01*
X173132176Y-97007930D02*
X173132176Y-103917176D01*
X168910000Y-126285000D02*
X168910000Y-131445000D01*
X186055000Y-106680000D02*
X182880000Y-106680000D01*
X107950000Y-71120000D02*
X113030000Y-71120000D01*
X156845000Y-95250000D02*
X148590000Y-95250000D01*
X138430000Y-97155000D02*
X138430000Y-96520000D01*
X135255000Y-131445000D02*
X160020000Y-131445000D01*
X148590000Y-95250000D02*
X148590000Y-95885000D01*
X123190000Y-71120000D02*
X123190000Y-75287500D01*
X137795000Y-99695000D02*
X137160000Y-99695000D01*
X137780000Y-99680000D02*
X137795000Y-99695000D01*
X129980000Y-97155000D02*
X129980000Y-99500000D01*
X196850000Y-131445000D02*
X196850000Y-112395000D01*
X178125000Y-104140000D02*
X173355000Y-104140000D01*
X186055000Y-111125000D02*
X187325000Y-112395000D01*
X179070000Y-126007500D02*
X179070000Y-131445000D01*
X187960000Y-71120000D02*
X177800000Y-71120000D01*
X104775000Y-126007500D02*
X104775000Y-131445000D01*
X107950000Y-71120000D02*
X102870000Y-71120000D01*
X179070000Y-131445000D02*
X189230000Y-131445000D01*
X182880000Y-106680000D02*
X182880000Y-104140000D01*
X136525000Y-99695000D02*
X135890000Y-99695000D01*
X99695000Y-88265000D02*
X99695000Y-131445000D01*
X192405000Y-131445000D02*
X196850000Y-131445000D01*
X102870000Y-71120000D02*
X102870000Y-75010000D01*
X140970000Y-97790000D02*
X148655000Y-97790000D01*
X128270000Y-71120000D02*
X123190000Y-71120000D01*
X193040000Y-71120000D02*
X187960000Y-71120000D01*
X125095000Y-126007500D02*
X125095000Y-131445000D01*
X157480000Y-71120000D02*
X138430000Y-71120000D01*
X137780000Y-97155000D02*
X137780000Y-99680000D01*
X114935000Y-126007500D02*
X114935000Y-131445000D01*
X182880000Y-111760000D02*
X182880000Y-106680000D01*
X135830000Y-107890000D02*
X136525000Y-108585000D01*
X148655000Y-95950000D02*
X148655000Y-97790000D01*
X139065000Y-99695000D02*
X140970000Y-97790000D01*
X177800000Y-71120000D02*
X167640000Y-71120000D01*
X138430000Y-96520000D02*
X138430000Y-99695000D01*
X186055000Y-107315000D02*
X186055000Y-111125000D01*
X118110000Y-71120000D02*
X123190000Y-71120000D01*
X136480000Y-97155000D02*
X136480000Y-99650000D01*
X167640000Y-71120000D02*
X157480000Y-71120000D01*
X186055000Y-107315000D02*
X186055000Y-97790000D01*
X135255000Y-126007500D02*
X135255000Y-131445000D01*
X187325000Y-96520000D02*
X196850000Y-96520000D01*
X177800000Y-76280000D02*
X177800000Y-71120000D01*
X135830000Y-97155000D02*
X135830000Y-99635000D01*
X138430000Y-99695000D02*
X139065000Y-99695000D01*
X189230000Y-125730000D02*
X189230000Y-131445000D01*
X137130000Y-97155000D02*
X137130000Y-99665000D01*
X182880000Y-104140000D02*
X178125000Y-104140000D01*
X125095000Y-131445000D02*
X135255000Y-131445000D01*
X129980000Y-99500000D02*
X130175000Y-99695000D01*
X138430000Y-99695000D02*
X137795000Y-99695000D01*
X138430000Y-71120000D02*
X133350000Y-71120000D01*
X156845000Y-104140000D02*
X156845000Y-95250000D01*
X148590000Y-95885000D02*
X148655000Y-95950000D01*
X137130000Y-99665000D02*
X137160000Y-99695000D01*
X168910000Y-131445000D02*
X179070000Y-131445000D01*
X186055000Y-97790000D02*
X187325000Y-96520000D01*
X158750000Y-126007500D02*
X158750000Y-131445000D01*
X137160000Y-99695000D02*
X136525000Y-99695000D01*
X104775000Y-131445000D02*
X107950000Y-131445000D01*
X167640000Y-76200000D02*
X167640000Y-71120000D01*
X158750000Y-131445000D02*
X168910000Y-131445000D01*
X189230000Y-131445000D02*
X192405000Y-131445000D01*
X118110000Y-71120000D02*
X113030000Y-71120000D01*
X173132176Y-103917176D02*
X173355000Y-104140000D01*
X171450000Y-104140000D02*
X156845000Y-104140000D01*
X196850000Y-96520000D02*
X196850000Y-71120000D01*
%TO.N,Net-(Q1-G)*%
X187960000Y-78105000D02*
X187960000Y-80645000D01*
X187960000Y-80645000D02*
X187960000Y-82272500D01*
%TO.N,Net-(Q2-G)*%
X177800000Y-78105000D02*
X177800000Y-82272500D01*
%TO.N,Net-(Q3-G)*%
X167640000Y-78025000D02*
X167640000Y-82272500D01*
%TO.N,Net-(Q4-G)*%
X157480000Y-77747500D02*
X157480000Y-82272500D01*
%TO.N,Net-(Q5-G)*%
X133350000Y-77470000D02*
X133350000Y-82907500D01*
%TO.N,Net-(Q6-G)*%
X123190000Y-77112500D02*
X123190000Y-82907500D01*
%TO.N,Net-(Q7-G)*%
X113030000Y-83185000D02*
X113030000Y-77112500D01*
%TO.N,Net-(Q8-G)*%
X102870000Y-76835000D02*
X102870000Y-83185000D01*
%TO.N,Net-(Q9-G)*%
X104775000Y-124182500D02*
X104775000Y-118387500D01*
%TO.N,Net-(Q10-G)*%
X114935000Y-118387500D02*
X114935000Y-124182500D01*
%TO.N,Net-(U100-~{OE})*%
X135180000Y-112320000D02*
X135255000Y-112395000D01*
X136525000Y-112395000D02*
X136525000Y-110410000D01*
X135180000Y-102880000D02*
X135180000Y-112320000D01*
X135255000Y-112395000D02*
X136525000Y-112395000D01*
%TO.N,Net-(Q11-G)*%
X125095000Y-124182500D02*
X125095000Y-118387500D01*
%TO.N,Net-(Q12-G)*%
X135255000Y-118665000D02*
X135255000Y-124182500D01*
%TO.N,Net-(Q13-G)*%
X158750000Y-118387500D02*
X158750000Y-124182500D01*
%TO.N,Net-(Q14-G)*%
X168910000Y-118387500D02*
X168910000Y-124460000D01*
%TO.N,Net-(Q15-G)*%
X179070000Y-118387500D02*
X179070000Y-124182500D01*
%TO.N,Net-(Q16-G)*%
X189230000Y-118387500D02*
X189230000Y-123905000D01*
%TO.N,Net-(U100-LED0)*%
X136525698Y-87630698D02*
X184426802Y-87630698D01*
X184426802Y-87630698D02*
X187960000Y-84097500D01*
X135180000Y-97155000D02*
X135180000Y-88976396D01*
X135180000Y-88976396D02*
X136525698Y-87630698D01*
%TO.N,Net-(U100-LED1)*%
X134530000Y-88990000D02*
X136525000Y-86995000D01*
X136525000Y-86995000D02*
X174902500Y-86995000D01*
X174902500Y-86995000D02*
X177800000Y-84097500D01*
X134530000Y-97155000D02*
X134530000Y-88990000D01*
%TO.N,Net-(U100-LED2)*%
X136526396Y-85725000D02*
X166012500Y-85725000D01*
X166012500Y-85725000D02*
X167640000Y-84097500D01*
X133880000Y-97155000D02*
X133880000Y-88371396D01*
X133880000Y-88371396D02*
X136526396Y-85725000D01*
%TO.N,Net-(U100-LED3)*%
X133230000Y-88385000D02*
X137517500Y-84097500D01*
X137517500Y-84097500D02*
X157480000Y-84097500D01*
X133230000Y-97155000D02*
X133230000Y-88385000D01*
%TO.N,Net-(U100-LED4)*%
X132580000Y-85502500D02*
X133350000Y-84732500D01*
X132580000Y-97155000D02*
X132580000Y-85502500D01*
%TO.N,Net-(U100-LED5)*%
X131930000Y-97155000D02*
X131930000Y-86845000D01*
X131930000Y-86845000D02*
X129817500Y-84732500D01*
X129817500Y-84732500D02*
X123190000Y-84732500D01*
%TO.N,Net-(U100-LED6)*%
X130175000Y-86360000D02*
X114380000Y-86360000D01*
X131280000Y-87465000D02*
X130175000Y-86360000D01*
X114380000Y-86360000D02*
X113030000Y-85010000D01*
X131280000Y-97155000D02*
X131280000Y-87465000D01*
%TO.N,Net-(U100-LED7)*%
X130174302Y-86995698D02*
X104855698Y-86995698D01*
X130630000Y-87451396D02*
X130174302Y-86995698D01*
X104855698Y-86995698D02*
X102870000Y-85010000D01*
X130630000Y-97155000D02*
X130630000Y-87451396D01*
%TO.N,Net-(U100-LED8)*%
X107672500Y-113665000D02*
X104775000Y-116562500D01*
X129980000Y-102880000D02*
X129980000Y-113223604D01*
X129538604Y-113665000D02*
X107672500Y-113665000D01*
X129980000Y-113223604D02*
X129538604Y-113665000D01*
%TO.N,Net-(U100-LED9)*%
X130630000Y-113210000D02*
X129540000Y-114300000D01*
X117197500Y-114300000D02*
X114935000Y-116562500D01*
X130630000Y-102880000D02*
X130630000Y-113210000D01*
X129540000Y-114300000D02*
X117197500Y-114300000D01*
%TO.N,Net-(U100-LED10)*%
X131280000Y-113830000D02*
X128547500Y-116562500D01*
X128547500Y-116562500D02*
X125095000Y-116562500D01*
X131280000Y-102880000D02*
X131280000Y-113830000D01*
%TO.N,Net-(U100-LED11)*%
X131930000Y-102880000D02*
X131930000Y-113515000D01*
X131930000Y-113515000D02*
X135255000Y-116840000D01*
%TO.N,Net-(U100-LED12)*%
X157756802Y-115569302D02*
X158750000Y-116562500D01*
X132580000Y-113528604D02*
X134620698Y-115569302D01*
X134620698Y-115569302D02*
X157756802Y-115569302D01*
X132580000Y-102880000D02*
X132580000Y-113528604D01*
%TO.N,Net-(U100-LED13)*%
X167282500Y-114935000D02*
X168910000Y-116562500D01*
X133230000Y-113542208D02*
X134622792Y-114935000D01*
X133230000Y-102880000D02*
X133230000Y-113542208D01*
X134622792Y-114935000D02*
X167282500Y-114935000D01*
%TO.N,Net-(U100-LED14)*%
X133880000Y-102880000D02*
X133880000Y-113555812D01*
X133880000Y-113555812D02*
X134809188Y-114485000D01*
X134809188Y-114485000D02*
X176992500Y-114485000D01*
X176992500Y-114485000D02*
X179070000Y-116562500D01*
%TO.N,Net-(U100-LED15)*%
X134530000Y-102880000D02*
X134530000Y-113569416D01*
X134995584Y-114035000D02*
X187972500Y-114035000D01*
X189230000Y-115292500D02*
X189230000Y-116562500D01*
X187972500Y-114035000D02*
X189230000Y-115292500D01*
X134530000Y-113569416D02*
X134995584Y-114035000D01*
%TO.N,Net-(U1-SDA2)*%
X145137500Y-104775000D02*
X143510000Y-104775000D01*
X137795000Y-104775000D02*
X137780000Y-104760000D01*
X148655000Y-100330000D02*
X143510000Y-100330000D01*
X143510000Y-104775000D02*
X137795000Y-104775000D01*
X137780000Y-104760000D02*
X137780000Y-102880000D01*
%TO.N,Net-(U1-VDD2)*%
X138430000Y-101600000D02*
X148655000Y-101600000D01*
X148630000Y-106640000D02*
X148590000Y-106680000D01*
X148655000Y-104710000D02*
X148655000Y-101600000D01*
X178125000Y-106680000D02*
X171490000Y-106680000D01*
X148590000Y-106680000D02*
X148590000Y-104775000D01*
X178125000Y-106680000D02*
X178125000Y-111515000D01*
X146962500Y-106680000D02*
X148590000Y-106680000D01*
X178125000Y-111515000D02*
X177880000Y-111760000D01*
X138430000Y-102880000D02*
X138430000Y-101600000D01*
X171450000Y-106640000D02*
X148630000Y-106640000D01*
X148590000Y-104775000D02*
X148655000Y-104710000D01*
X171490000Y-106680000D02*
X171450000Y-106640000D01*
X146962500Y-104775000D02*
X148590000Y-104775000D01*
%TO.N,Net-(U1-SCL2)*%
X148655000Y-99060000D02*
X141605000Y-99060000D01*
X141605000Y-106680000D02*
X137795000Y-106680000D01*
X137795000Y-106680000D02*
X137130000Y-106015000D01*
X145137500Y-106680000D02*
X141605000Y-106680000D01*
X137130000Y-106015000D02*
X137130000Y-102880000D01*
%TO.N,Net-(J5-Pin_2)*%
X178132176Y-101592824D02*
X178125000Y-101600000D01*
X182880000Y-101600000D02*
X178125000Y-101600000D01*
X178132176Y-97007930D02*
X178132176Y-101592824D01*
%TD*%
M02*
