%TF.GenerationSoftware,KiCad,Pcbnew,8.0.5*%
%TF.CreationDate,2024-10-15T20:37:23+02:00*%
%TF.ProjectId,LED_16x24V_REG4_VERSION_B,4c45445f-3136-4783-9234-565f52454734,rev?*%
%TF.SameCoordinates,Original*%
%TF.FileFunction,Soldermask,Bot*%
%TF.FilePolarity,Negative*%
%FSLAX46Y46*%
G04 Gerber Fmt 4.6, Leading zero omitted, Abs format (unit mm)*
G04 Created by KiCad (PCBNEW 8.0.5) date 2024-10-15 20:37:23*
%MOMM*%
%LPD*%
G01*
G04 APERTURE LIST*
G04 Aperture macros list*
%AMRoundRect*
0 Rectangle with rounded corners*
0 $1 Rounding radius*
0 $2 $3 $4 $5 $6 $7 $8 $9 X,Y pos of 4 corners*
0 Add a 4 corners polygon primitive as box body*
4,1,4,$2,$3,$4,$5,$6,$7,$8,$9,$2,$3,0*
0 Add four circle primitives for the rounded corners*
1,1,$1+$1,$2,$3*
1,1,$1+$1,$4,$5*
1,1,$1+$1,$6,$7*
1,1,$1+$1,$8,$9*
0 Add four rect primitives between the rounded corners*
20,1,$1+$1,$2,$3,$4,$5,0*
20,1,$1+$1,$4,$5,$6,$7,0*
20,1,$1+$1,$6,$7,$8,$9,0*
20,1,$1+$1,$8,$9,$2,$3,0*%
G04 Aperture macros list end*
%ADD10R,1.600000X1.600000*%
%ADD11C,1.600000*%
%ADD12RoundRect,0.249999X-0.790001X-1.550001X0.790001X-1.550001X0.790001X1.550001X-0.790001X1.550001X0*%
%ADD13O,2.080000X3.600000*%
%ADD14RoundRect,0.249999X1.550001X-0.790001X1.550001X0.790001X-1.550001X0.790001X-1.550001X-0.790001X0*%
%ADD15O,3.600000X2.080000*%
%ADD16R,2.000000X1.905000*%
%ADD17O,2.000000X1.905000*%
%ADD18RoundRect,0.147500X0.172500X-0.147500X0.172500X0.147500X-0.172500X0.147500X-0.172500X-0.147500X0*%
%ADD19RoundRect,0.147500X-0.172500X0.147500X-0.172500X-0.147500X0.172500X-0.147500X0.172500X0.147500X0*%
G04 APERTURE END LIST*
D10*
%TO.C,C3*%
X171450000Y-106640000D03*
D11*
X171450000Y-104140000D03*
%TD*%
D12*
%TO.C,J4*%
X156845000Y-138430000D03*
D13*
X161925000Y-138430000D03*
X167005000Y-138430000D03*
X172085000Y-138430000D03*
X177165000Y-138430000D03*
X182245000Y-138430000D03*
X187325000Y-138430000D03*
X192405000Y-138430000D03*
%TD*%
D14*
%TO.C,J5*%
X193040000Y-106680000D03*
D15*
X193040000Y-101600000D03*
%TD*%
D12*
%TO.C,J1*%
X157480000Y-64770000D03*
D13*
X162560000Y-64770000D03*
X167640000Y-64770000D03*
X172720000Y-64770000D03*
X177800000Y-64770000D03*
X182880000Y-64770000D03*
X187960000Y-64770000D03*
X193040000Y-64770000D03*
%TD*%
D16*
%TO.C,Q16*%
X192405000Y-120650000D03*
D17*
X192405000Y-123190000D03*
X192405000Y-125730000D03*
%TD*%
D12*
%TO.C,J3*%
X102870000Y-138430000D03*
D13*
X107950000Y-138430000D03*
X113030000Y-138430000D03*
X118110000Y-138430000D03*
X123190000Y-138430000D03*
X128270000Y-138430000D03*
X133350000Y-138430000D03*
X138430000Y-138430000D03*
%TD*%
D16*
%TO.C,Q11*%
X128270000Y-120650000D03*
D17*
X128270000Y-123190000D03*
X128270000Y-125730000D03*
%TD*%
D16*
%TO.C,Q7*%
X118110000Y-80645000D03*
D17*
X118110000Y-78105000D03*
X118110000Y-75565000D03*
%TD*%
D16*
%TO.C,Q6*%
X128270000Y-80645000D03*
D17*
X128270000Y-78105000D03*
X128270000Y-75565000D03*
%TD*%
D16*
%TO.C,Q5*%
X138430000Y-80645000D03*
D17*
X138430000Y-78105000D03*
X138430000Y-75565000D03*
%TD*%
D12*
%TO.C,J2*%
X102870000Y-64770000D03*
D13*
X107950000Y-64770000D03*
X113030000Y-64770000D03*
X118110000Y-64770000D03*
X123190000Y-64770000D03*
X128270000Y-64770000D03*
X133350000Y-64770000D03*
X138430000Y-64770000D03*
%TD*%
D16*
%TO.C,Q1*%
X193040000Y-80645000D03*
D17*
X193040000Y-78105000D03*
X193040000Y-75565000D03*
%TD*%
D16*
%TO.C,Q8*%
X107950000Y-80645000D03*
D17*
X107950000Y-78105000D03*
X107950000Y-75565000D03*
%TD*%
D16*
%TO.C,Q4*%
X162560000Y-80645000D03*
D17*
X162560000Y-78105000D03*
X162560000Y-75565000D03*
%TD*%
D16*
%TO.C,Q10*%
X118110000Y-120650000D03*
D17*
X118110000Y-123190000D03*
X118110000Y-125730000D03*
%TD*%
D16*
%TO.C,Q14*%
X172085000Y-120650000D03*
D17*
X172085000Y-123190000D03*
X172085000Y-125730000D03*
%TD*%
D16*
%TO.C,Q9*%
X107950000Y-120650000D03*
D17*
X107950000Y-123190000D03*
X107950000Y-125730000D03*
%TD*%
D16*
%TO.C,Q12*%
X138430000Y-120650000D03*
D17*
X138430000Y-123190000D03*
X138430000Y-125730000D03*
%TD*%
D16*
%TO.C,Q2*%
X182880000Y-80645000D03*
D17*
X182880000Y-78105000D03*
X182880000Y-75565000D03*
%TD*%
D11*
%TO.C,C2*%
X178132176Y-97007930D03*
X173132176Y-97007930D03*
%TD*%
D16*
%TO.C,Q15*%
X182245000Y-120650000D03*
D17*
X182245000Y-123190000D03*
X182245000Y-125730000D03*
%TD*%
D16*
%TO.C,U2*%
X178125000Y-101600000D03*
D17*
X178125000Y-104140000D03*
X178125000Y-106680000D03*
%TD*%
D16*
%TO.C,Q3*%
X172720000Y-80645000D03*
D17*
X172720000Y-78105000D03*
X172720000Y-75565000D03*
%TD*%
D16*
%TO.C,Q13*%
X161925000Y-120650000D03*
D17*
X161925000Y-123190000D03*
X161925000Y-125730000D03*
%TD*%
D11*
%TO.C,C1*%
X182880000Y-111760000D03*
X177880000Y-111760000D03*
%TD*%
D18*
%TO.C,F11*%
X123190000Y-131445000D03*
X123190000Y-130475000D03*
%TD*%
%TO.C,F15*%
X177165000Y-130660000D03*
X177165000Y-129690000D03*
%TD*%
D19*
%TO.C,F1*%
X187960000Y-70635000D03*
X187960000Y-71605000D03*
%TD*%
D18*
%TO.C,F14*%
X167005000Y-130660000D03*
X167005000Y-129690000D03*
%TD*%
%TO.C,F9*%
X102870000Y-131295000D03*
X102870000Y-130325000D03*
%TD*%
D19*
%TO.C,F8*%
X102870000Y-70485000D03*
X102870000Y-71455000D03*
%TD*%
%TO.C,F3*%
X167640000Y-70635000D03*
X167640000Y-71605000D03*
%TD*%
D18*
%TO.C,F10*%
X113030000Y-131445000D03*
X113030000Y-130475000D03*
%TD*%
D19*
%TO.C,F4*%
X157480000Y-70635000D03*
X157480000Y-71605000D03*
%TD*%
%TO.C,F2*%
X177800000Y-70635000D03*
X177800000Y-71605000D03*
%TD*%
D18*
%TO.C,F13*%
X156845000Y-130660000D03*
X156845000Y-129690000D03*
%TD*%
%TO.C,F16*%
X187325000Y-130810000D03*
X187325000Y-129840000D03*
%TD*%
D19*
%TO.C,F7*%
X113030000Y-70635000D03*
X113030000Y-71605000D03*
%TD*%
%TO.C,F5*%
X133350000Y-70635000D03*
X133350000Y-71605000D03*
%TD*%
D18*
%TO.C,F12*%
X133350000Y-131295000D03*
X133350000Y-130325000D03*
%TD*%
D19*
%TO.C,F6*%
X123190000Y-70635000D03*
X123190000Y-71605000D03*
%TD*%
M02*
