M48
; DRILL file {KiCad 8.0.5} date 2024-10-15T20:37:27+0200
; FORMAT={-:-/ absolute / inch / decimal}
; #@! TF.CreationDate,2024-10-15T20:37:27+02:00
; #@! TF.GenerationSoftware,Kicad,Pcbnew,8.0.5
; #@! TF.FileFunction,Plated,1,2,PTH
FMAT,2
INCH
; #@! TA.AperFunction,Plated,PTH,ViaDrill
T1C0.0157
; #@! TA.AperFunction,Plated,PTH,ComponentDrill
T2C0.0315
; #@! TA.AperFunction,Plated,PTH,ComponentDrill
T3C0.0433
; #@! TA.AperFunction,Plated,PTH,ComponentDrill
T4C0.0551
%
G90
G05
T1
X4.05Y-3.175
X4.125Y-4.75
X4.25Y-2.8
X4.25Y-5.175
X4.45Y-3.175
X4.525Y-4.75
X4.65Y-2.8
X4.65Y-5.175
X4.85Y-3.175
X4.925Y-4.75
X5.05Y-2.8
X5.05Y-5.175
X5.25Y-3.175
X5.325Y-4.75
X5.45Y-2.8
X5.45Y-5.175
X5.575Y-3.9
X5.575Y-4.2
X5.65Y-3.95
X5.65Y-4.125
X6.2Y-3.175
X6.25Y-4.75
X6.375Y-5.175
X6.4Y-2.8
X6.6Y-3.175
X6.65Y-4.75
X6.775Y-5.175
X6.8Y-2.8
X7.0Y-3.175
X7.05Y-4.75
X7.175Y-5.175
X7.2Y-2.8
X7.2Y-4.0
X7.325Y-4.2
X7.4Y-3.175
X7.45Y-4.75
X7.575Y-5.175
X7.6Y-2.8
T2
X6.75Y-4.1
X6.75Y-4.1984
X6.8162Y-3.8192
X7.0031Y-4.4
X7.0131Y-3.8192
X7.2Y-4.4
T3
X4.25Y-2.975
X4.25Y-3.075
X4.25Y-3.175
X4.25Y-4.75
X4.25Y-4.85
X4.25Y-4.95
X4.65Y-2.975
X4.65Y-3.075
X4.65Y-3.175
X4.65Y-4.75
X4.65Y-4.85
X4.65Y-4.95
X5.05Y-2.975
X5.05Y-3.075
X5.05Y-3.175
X5.05Y-4.75
X5.05Y-4.85
X5.05Y-4.95
X5.45Y-2.975
X5.45Y-3.075
X5.45Y-3.175
X5.45Y-4.75
X5.45Y-4.85
X5.45Y-4.95
X6.375Y-4.75
X6.375Y-4.85
X6.375Y-4.95
X6.4Y-2.975
X6.4Y-3.075
X6.4Y-3.175
X6.775Y-4.75
X6.775Y-4.85
X6.775Y-4.95
X6.8Y-2.975
X6.8Y-3.075
X6.8Y-3.175
X7.0128Y-4.0
X7.0128Y-4.1
X7.0128Y-4.2
X7.175Y-4.75
X7.175Y-4.85
X7.175Y-4.95
X7.2Y-2.975
X7.2Y-3.075
X7.2Y-3.175
X7.575Y-4.75
X7.575Y-4.85
X7.575Y-4.95
X7.6Y-2.975
X7.6Y-3.075
X7.6Y-3.175
T4
X4.05Y-2.55
X4.05Y-5.45
X4.25Y-2.55
X4.25Y-5.45
X4.45Y-2.55
X4.45Y-5.45
X4.65Y-2.55
X4.65Y-5.45
X4.85Y-2.55
X4.85Y-5.45
X5.05Y-2.55
X5.05Y-5.45
X5.25Y-2.55
X5.25Y-5.45
X5.45Y-2.55
X5.45Y-5.45
X6.175Y-5.45
X6.2Y-2.55
X6.375Y-5.45
X6.4Y-2.55
X6.575Y-5.45
X6.6Y-2.55
X6.775Y-5.45
X6.8Y-2.55
X6.975Y-5.45
X7.0Y-2.55
X7.175Y-5.45
X7.2Y-2.55
X7.375Y-5.45
X7.4Y-2.55
X7.575Y-5.45
X7.6Y-2.55
X7.6Y-4.0
X7.6Y-4.2
M30
